PathFileType	4	(X/Y/Z)	/Users/itak/Documents/Research/Walk-IL/dataset/trc/00357_00011.trc
DataRate	CameraRate	NumFrames	NumMarkers	Units	OrigDataRate	OrigDataStartFrame	OrigNumFrames
100.000000	100.000000	4	59	mm	100.000000	53	430
Frame#	Time	RPSI			LPSI			L3			STRN			T10			C7			CLAV			RBAK			LBAK			LSHO			LUPA			LAEL			LAOL			LWTS			LWPS			LFRA			LHPS			LHTS			RSHO			RUPA			RAEL			RAOL			RWTS			RWPS			RFRA			RIFD			RHTS			RHPS			RBHD			LFHD			RFHD			LBHD			RHIP			RASI			LASI			LKNE			LTHI			LANK			LTIP			LTOE			LMT1			LMT5			LHEE			RKNE			RTHI			RANK			RTIP			RTOE			RMT5			RHEE			LIFD			LHIP			RMT1			*53			*54			*55			*56			*57			*58			
		X1	Y1	Z1	X2	Y2	Z2	X3	Y3	Z3	X4	Y4	Z4	X5	Y5	Z5	X6	Y6	Z6	X7	Y7	Z7	X8	Y8	Z8	X9	Y9	Z9	X10	Y10	Z10	X11	Y11	Z11	X12	Y12	Z12	X13	Y13	Z13	X14	Y14	Z14	X15	Y15	Z15	X16	Y16	Z16	X17	Y17	Z17	X18	Y18	Z18	X19	Y19	Z19	X20	Y20	Z20	X21	Y21	Z21	X22	Y22	Z22	X23	Y23	Z23	X24	Y24	Z24	X25	Y25	Z25	X26	Y26	Z26	X27	Y27	Z27	X28	Y28	Z28	X29	Y29	Z29	X30	Y30	Z30	X31	Y31	Z31	X32	Y32	Z32	X33	Y33	Z33	X34	Y34	Z34	X35	Y35	Z35	X36	Y36	Z36	X37	Y37	Z37	X38	Y38	Z38	X39	Y39	Z39	X40	Y40	Z40	X41	Y41	Z41	X42	Y42	Z42	X43	Y43	Z43	X44	Y44	Z44	X45	Y45	Z45	X46	Y46	Z46	X47	Y47	Z47	X48	Y48	Z48	X49	Y49	Z49	X50	Y50	Z50	X51	Y51	Z51	X52	Y52	Z52	X53	Y53	Z53	X54	Y54	Z54	X55	Y55	Z55	X56	Y56	Z56	X57	Y57	Z57	X58	Y58	Z58	X59	Y59	Z59	

54	0.53	-1222.151611328125	960.2909545898438	869.1615600585938	-1225.2734375	962.2271728515625	739.2839965820312	-1228.8271484375	1030.25244140625	814.0391845703125	-974.924072265625	1188.3359375	794.1422119140625	-1221.603515625	1147.197021484375	819.775146484375	-1157.954833984375	1389.072143554688	795.97705078125	-1008.439086914062	1316.538696289062	789.303955078125	-1212.065795898438	1257.901611328125	872.7666625976562	-1182.616455078125	1351.026733398438	697.2571411132812	-1102.543090820312	1355.769165039062	631.9618530273438	-1151.208740234375	1239.860961914062	574.7186279296875	-1178.545776367188	1036.93115234375	572.3997802734375	-1227.723754882812	1037.06103515625	640.879638671875	-1114.319946289062	783.9430541992188	610.00146484375	-1168.463623046875	778.2276611328125	565.0249633789062	-1183.57470703125	931.057373046875	568.2122802734375	-1180.271362304688	709.7435302734375	577.2186889648438	-1119.550903320312	704.0603637695312	597.5696411132812	-1086.890991210938	1376.33642578125	954.0438842773438	-1097.349853515625	1315.946411132812	1021.843383789062	-1109.726440429688	1052.868041992188	1081.289672851562	-1162.099487304688	1043.072875976562	1002.744445800781	-1023.951232910156	813.776123046875	1037.077026367188	-1051.256469726562	806.510986328125	1108.517700195312	-1088.876831054688	983.7154541015625	1092.016723632812	-1026.174560546875	641.0083618164062	1061.632690429688	-1003.948608398438	710.6705322265625	1056.348876953125	-1043.297607421875	722.5984497070312	1111.40625	-1087.889770507812	1589.923828125	865.1519775390625	-937.2134399414062	1585.579345703125	721.6563720703125	-930.8580932617188	1589.899169921875	822.3424072265625	-1123.510375976562	1581.131469726562	725.4146118164062	-1148.117797851562	895.1292114257812	975.3604736328125	-1039.441528320312	920.7310180664062	938.7557983398438	-1020.063110351562	935.1050415039062	702.2417602539062	-894.1776123046875	505.2493896484375	638.697509765625	-955.0700073242188	630.2479248046875	626.7105102539062	-957.5982666015625	69.59361267089844	645.4609375	-921.3372192382812	277.0398864746094	627.3175048828125	-751.3936767578125	80.26590728759766	691.5128173828125	-814.8234252929688	64.31842803955078	738.9179077148438	-834.0781860351562	68.30931854248047	626.1415405273438	-985.8417358398438	69.1922607421875	715.10400390625	-1166.411865234375	436.5006713867188	939.3572998046875	-1094.477905273438	684.3286743164062	967.9796142578125	-1344.528442382812	61.15866851806641	906.2837524414062	-1191.409790039062	316.3951721191406	920.4024658203125	-1154.677001953125	47.56687545776367	855.16748046875	-1208.887573242188	40.21160507202148	811.11962890625	-1386.703247070312	66.07712554931641	869.029296875	-1138.050415039062	622.680419921875	619.3201904296875	-1134.818115234375	914.757080078125	634.4054565429688	-1245.477661132812	41.27001190185547	924.954345703125	nan	nan	nan	nan	nan	nan	nan	nan	nan	nan	nan	nan	nan	nan	nan	nan	nan	nan	
55	0.54	-1217.180053710938	959.8954467773438	868.5635986328125	-1219.805786132812	961.96484375	738.649169921875	-1223.32177734375	1029.713500976562	813.675537109375	-969.6492919921875	1187.4189453125	794.2138061523438	-1216.36279296875	1146.575073242188	819.6246337890625	-1152.37353515625	1388.410400390625	795.9442749023438	-1002.865905761719	1315.688598632812	789.4266357421875	-1206.681640625	1257.255126953125	872.6853637695312	-1176.886108398438	1350.462768554688	697.2022094726562	-1096.747192382812	1355.126953125	631.9807739257812	-1145.958618164062	1239.545776367188	574.7052001953125	-1174.940307617188	1036.8271484375	572.9395141601562	-1224.124755859375	1037.535400390625	641.4003295898438	-1113.302856445312	783.3226318359375	611.0208129882812	-1167.383056640625	778.2301025390625	565.7192993164062	-1180.979248046875	931.0542602539062	568.8855590820312	-1179.924560546875	709.7107543945312	578.0609741210938	-1119.389892578125	703.4417724609375	598.5851440429688	-1081.471069335938	1375.486694335938	954.111328125	-1092.050903320312	1315.115234375	1021.880004882812	-1103.95068359375	1052.077392578125	1081.693237304688	-1156.38037109375	1042.111206054688	1003.140991210938	-1017.596252441406	813.1757202148438	1037.517822265625	-1044.895874023438	805.8572387695312	1108.9931640625	-1082.981811523438	982.9591064453125	1092.451416015625	-1019.279418945312	640.48046875	1062.260498046875	-997.2536010742188	710.1417236328125	1056.867919921875	-1036.754150390625	721.9730224609375	1111.93310546875	-1082.329467773438	1589.019287109375	865.5394287109375	-931.8611450195312	1585.030883789062	721.8154296875	-925.372314453125	1589.24072265625	822.510009765625	-1118.119995117188	1580.341552734375	725.8302001953125	-1143.866821289062	894.3297119140625	974.9614868164062	-1035.12255859375	919.4959106445312	938.7874755859375	-1014.778442382812	933.9899291992188	702.481201171875	-890.587158203125	503.1395263671875	639.9212036132812	-951.240234375	628.578369140625	626.9828491210938	-934.4653930664062	65.92372894287109	646.3013916015625	-907.8179321289062	274.8818969726562	628.1057739257812	-728.8255004882812	85.25906372070312	692.7138671875	-791.6798095703125	66.84224700927734	740.0020141601562	-810.8903198242188	69.81726837158203	627.2329711914062	-962.8890380859375	64.43512725830078	715.8355102539062	-1164.93212890625	436.0724792480469	939.2045288085938	-1091.32666015625	683.4490356445312	967.7919921875	-1344.291381835938	62.02208709716797	906.2201538085938	-1190.416748046875	316.1826477050781	920.2799682617188	-1154.7705078125	47.59066772460938	855.150390625	-1208.953247070312	40.2091178894043	811.0999145507812	-1386.73095703125	67.69579315185547	868.6143798828125	-1138.726806640625	622.3136596679688	620.0978393554688	-1130.262451171875	913.93115234375	634.38671875	-1245.48388671875	41.29037094116211	924.8998413085938	nan	nan	nan	nan	nan	nan	nan	nan	nan	nan	nan	nan	nan	nan	nan	nan	nan	nan	
56	0.55	-1212.122314453125	959.4229736328125	867.8703002929688	-1214.17919921875	961.5693359375	737.909912109375	-1217.745239257812	1029.066284179688	813.1779174804688	-964.2569580078125	1186.356323242188	794.2786254882812	-1211.0322265625	1145.817504882812	819.3358764648438	-1146.67041015625	1387.616577148438	795.772705078125	-997.1748046875	1314.696411132812	789.5125732421875	-1201.229736328125	1256.504028320312	872.4535522460938	-1170.978393554688	1349.758422851562	696.9921264648438	-1090.73193359375	1354.331420898438	631.8912353515625	-1140.398071289062	1239.050170898438	574.550048828125	-1171.015502929688	1036.573974609375	573.341552734375	-1220.258911132812	1037.850830078125	641.712890625	-1112.047729492188	782.5402221679688	611.939453125	-1166.028442382812	777.982177734375	566.3884887695312	-1178.064697265625	930.9080810546875	569.4275512695312	-1179.379760742188	709.5240478515625	578.8604125976562	-1119.058715820312	702.6329345703125	599.5991821289062	-1076.016357421875	1374.510009765625	954.0892944335938	-1086.75341796875	1314.140625	1021.811828613281	-1098.105834960938	1051.121459960938	1081.931518554688	-1150.555908203125	1040.985717773438	1003.358581542969	-1011.050537109375	812.4403076171875	1037.79541015625	-1038.35498046875	805.0562744140625	1109.273315429688	-1076.98095703125	982.05810546875	1092.729736328125	-1012.123352050781	639.845703125	1062.734130859375	-990.2904663085938	709.539794921875	1057.201416015625	-1029.97119140625	721.2125854492188	1112.272094726562	-1076.684204101562	1587.986938476562	865.8250122070312	-926.403564453125	1584.379760742188	721.91845703125	-919.796875	1588.483764648438	822.609619140625	-1112.6416015625	1579.414672851562	726.1452026367188	-1139.453735351562	893.4664306640625	974.4495239257812	-1030.714233398438	918.1863403320312	938.7736206054688	-1009.303283691406	932.7022094726562	702.7146606445312	-886.9528198242188	500.818115234375	641.1220703125	-947.4681396484375	626.5357055664062	627.2705078125	-911.58740234375	62.99650955200195	646.9720458984375	-894.3475341796875	273.0065612792969	628.83447265625	-706.91162109375	90.68856811523438	694.0667114257812	-769.1629028320312	69.83251953125	741.0874633789062	-788.135498046875	71.89944458007812	628.3316040039062	-940.25244140625	60.39650344848633	716.3875122070312	-1163.349365234375	435.6217041015625	939.0948486328125	-1088.147583007812	682.5364379882812	967.631591796875	-1344.04736328125	62.91632461547852	906.1717529296875	-1189.35791015625	315.9688415527344	920.2116088867188	-1154.866088867188	47.60823822021484	855.092529296875	-1208.993774414062	40.21803283691406	811.0901489257812	-1386.751586914062	69.34490966796875	868.2144775390625	-1139.348876953125	621.7861328125	620.9432983398438	-1125.307983398438	912.9019775390625	634.3374633789062	-1245.481689453125	41.34614944458008	924.8594970703125	nan	nan	nan	nan	nan	nan	nan	nan	nan	nan	nan	nan	nan	nan	nan	nan	nan	nan	
57	0.5600000000000001	-1206.974609375	958.8744506835938	867.0704345703125	-1208.397705078125	961.042236328125	737.0693359375	-1212.08544921875	1028.304565429688	812.5384521484375	-958.72705078125	1185.161254882812	794.3295288085938	-1205.616088867188	1144.933227539062	818.913818359375	-1140.84423828125	1386.692626953125	795.469970703125	-991.3639526367188	1313.57373046875	789.5581665039062	-1195.701049804688	1255.640625	872.0665893554688	-1164.899658203125	1348.917236328125	696.6348876953125	-1084.507934570312	1353.388793945312	631.696533203125	-1134.553588867188	1238.380004882812	574.2627563476562	-1166.771118164062	1036.1689453125	573.593994140625	-1216.120727539062	1038.007568359375	641.8334350585938	-1110.548706054688	781.5822143554688	612.7664184570312	-1164.406982421875	777.47216796875	567.0413818359375	-1174.826171875	930.6107788085938	569.8314208984375	-1178.635864257812	709.1862182617188	579.5969848632812	-1118.5341796875	701.6498413085938	600.5841674804688	-1070.52685546875	1373.413818359375	953.9763793945312	-1081.447387695312	1313.030883789062	1021.639038085938	-1092.191162109375	1050.009887695312	1081.998657226562	-1144.615600585938	1039.703369140625	1003.390502929688	-1004.333923339844	811.5750122070312	1037.912109375	-1031.653198242188	804.1141967773438	1109.356079101562	-1070.8720703125	981.019775390625	1092.8369140625	-1004.734375	639.092041015625	1063.046020507812	-983.0908203125	708.85595703125	1057.3544921875	-1022.967651367188	720.3233642578125	1112.420776367188	-1070.949951171875	1586.83349609375	866.004150390625	-920.839111328125	1583.623413085938	721.9615478515625	-914.1305541992188	1587.624755859375	822.6397705078125	-1107.068115234375	1578.354125976562	726.36279296875	-1134.890991210938	892.54638671875	973.82958984375	-1026.180419921875	916.8218383789062	938.7262573242188	-1003.622436523438	931.2631225585938	702.9293212890625	-883.1837158203125	498.3597106933594	642.2683715820312	-943.7078857421875	624.1613159179688	627.5653686523438	-889.1497802734375	60.83037567138672	647.51513671875	-880.9810791015625	271.4431457519531	629.5355224609375	-685.800537109375	96.47669219970703	695.609130859375	-747.4413452148438	73.21022033691406	742.212646484375	-765.9799194335938	74.52186584472656	629.4727172851562	-918.0968627929688	57.07991409301758	716.8190307617188	-1161.676635742188	435.1623229980469	939.0386962890625	-1084.949584960938	681.5940551757812	967.5005493164062	-1343.790893554688	63.84010696411133	906.1370849609375	-1188.232299804688	315.740966796875	920.169921875	-1154.95654296875	47.62040328979492	855.0056762695312	-1209.009887695312	40.23337554931641	811.07861328125	-1386.759887695312	71.02365112304688	867.828369140625	-1139.869995117188	621.1065063476562	621.8532104492188	-1119.883178710938	911.7232055664062	634.1859741210938	-1245.466430664062	41.43560028076172	924.831787109375	nan	nan	nan	nan	nan	nan	nan	nan	nan	nan	nan	nan	nan	nan	nan	nan	nan	nan	
